Description
Format : Matroska
Format version : Version 2
File size : 306 MiB
Duration : 9mn 46s
Overall bit rate mode : Variable
Overall bit rate : 4 382 Kbps
Encoded date : UTC 2013-06-01 10:50:00
Writing application : mkvmerge v5.8.0 ('No Sleep / Pillow') built on Sep 2 2012 15:37:04
Writing library : libebml v1.2.3 + libmatroska v1.3.0

Video
ID : 1
Format : AVC
Format/Info : Advanced Video Codec
Format profile : High@L4.1
Format settings, CABAC : Yes
Format settings, ReFrames : 3 frames
Muxing mode : Header stripping
Codec ID : V_MPEG4/ISO/AVC
Duration : 9mn 46s
Bit rate mode : Variable
Bit rate : 4 000 Kbps
Maximum bit rate : 15.0 Mbps
Width : 768 pixels
Height : 416 pixels
Display aspect ratio : 1.85:1
Frame rate mode : Constant
Frame rate : 25.000 fps
Color space : YUV
Chroma subsampling : 4:2:0
Bit depth : 8 bits
Scan type : Progressive
Bits/(Pixel*Frame) : 0.501
Stream size : 273 MiB (89%)
Title : G Yoga ( by fantasma)
Writing library : x264 core 130 r2273 b3065e6
Encoding settings : cabac=1 / ref=4 / deblock=1:0:0 / analyse=0x3:0x113 / me=hex / subme=7 / psy=1 / psy_rd=1.00:0.00 / mixed_ref=1 / me_range=16 / chroma_me=1 / trellis=1 / 8x8dct=1 / cqm=0 / deadzone=21,11 / fast_pskip=1 / chroma_qp_offset=-2 / threads=3 / lookahead_threads=1 / sliced_threads=0 / slices=4 / nr=0 / decimate=1 / interlaced=0 / bluray_compat=1 / constrained_intra=0 / bframes=3 / b_pyramid=1 / b_adapt=1 / b_bias=0 / direct=1 / weightb=1 / open_gop=1 / weightp=0 / keyint=24 / keyint_min=1 / scenecut=40 / intra_refresh=0 / rc_lookahead=25 / rc=2pass / mbtree=1 / bitrate=4000 / ratetol=1.0 / qcomp=0.60 / qpmin=0 / qpmax=69 / qpstep=4 / cplxblur=20.0 / qblur=0.5 / vbv_maxrate=15000 / vbv_bufsize=15000 / nal_hrd=vbr / ip_ratio=1.40 / aq=1:1.00
Language : Russian
Default : Yes
Forced : No
Color primaries : BT.709
Transfer characteristics : BT.709
Matrix coefficients : BT.709

Audio
ID : 2
Format : AC-3
Format/Info : Audio Coding 3
Mode extension : CM (complete main)
Format settings, Endianness : Big
Muxing mode : Header stripping
Codec ID : A_AC3
Duration : 9mn 46s
Bit rate mode : Constant
Bit rate : 384 Kbps
Channel(s) : 2 channels
Channel positions : Front: L R
Sampling rate : 44.1 KHz
Bit depth : 16 bits
Compression mode : Lossy
Stream size : 26.8 MiB (9%)
Title : rus
Language : Russian
Default : Yes
Forced : No

Text
ID : 3
Format : UTF-8
Codec ID : S_TEXT/UTF8
Codec ID/Info : UTF-8 Plain Text
Title : Credito
Language : Portuguese
Default : Yes
Forced : No